<svg width="29" height="28" viewBox="0 0 29 28" fill="none" xmlns="http://www.w3.org/2000/svg">
<path d="M18.4126 20.0356C18.2002 20.1843 17.9585 20.2348 17.6873 20.187C17.4162 20.1392 17.1998 19.9995 17.0382 19.7679C16.876 19.5362 16.8187 19.2851 16.8664 19.0146C16.9141 18.7441 17.0539 18.5274 17.2857 18.3645L21.7747 15.2213L18.6112 10.7033C18.4625 10.4909 18.4159 10.2502 18.4715 9.98109C18.527 9.71199 18.6614 9.50281 18.8746 9.35356C19.0869 9.20484 19.3327 9.15509 19.6117 9.20429C19.8907 9.25349 20.1046 9.38428 20.2533 9.59666L23.9846 14.9256C24.1469 15.1573 24.2048 15.4044 24.1585 15.667C24.1122 15.9296 23.9732 16.1421 23.7415 16.3043L18.4126 20.0356ZM9.15543 18.4033L5.42409 13.0744C5.26186 12.8427 5.2039 12.5956 5.25021 12.333C5.29651 12.0704 5.43551 11.8579 5.6672 11.6957L10.9961 7.96437C11.2085 7.81566 11.4549 7.76196 11.7353 7.80328C12.0157 7.84461 12.2371 7.98078 12.3995 8.21182C12.5617 8.44351 12.6189 8.69493 12.5711 8.96608C12.5233 9.23723 12.3836 9.45359 12.152 9.61517L7.63402 12.7787L10.7975 17.2967C10.9463 17.5091 10.9928 17.7501 10.9371 18.0199C10.8814 18.2896 10.7471 18.4985 10.5342 18.6464C10.3218 18.7952 10.0761 18.8449 9.79704 18.7957C9.51801 18.7465 9.30414 18.6157 9.15543 18.4033Z" fill="#F5F5F5"/>
</svg>
