<svg width="106" height="24" viewBox="0 0 106 24" fill="none" xmlns="http://www.w3.org/2000/svg">
<g clip-path="url(#clip0_18_49)">
<rect x="-98.1311" y="112.665" width="215.052" height="5" transform="rotate(-45 -98.1311 112.665)" fill="#1A73E8" fill-opacity="0.5"/>
<rect x="-106.31" y="130.447" width="215.052" height="3" transform="rotate(-45 -106.31 130.447)" fill="#EA4335" fill-opacity="0.5"/>
</g>
<path d="M40.88 10.192C40.624 9.72267 40.272 9.36533 39.824 9.12C39.376 8.87467 38.8533 8.752 38.256 8.752C37.5947 8.752 37.008 8.90133 36.496 9.2C35.984 9.49867 35.584 9.92533 35.296 10.48C35.008 11.0347 34.864 11.6747 34.864 12.4C34.864 13.1467 35.008 13.7973 35.296 14.352C35.5947 14.9067 36.0053 15.3333 36.528 15.632C37.0507 15.9307 37.6587 16.08 38.352 16.08C39.2053 16.08 39.904 15.856 40.448 15.408C40.992 14.9493 41.3493 14.3147 41.52 13.504H37.68V11.792H43.728V13.744C43.5787 14.5227 43.2587 15.2427 42.768 15.904C42.2773 16.5653 41.6427 17.0987 40.864 17.504C40.096 17.8987 39.232 18.096 38.272 18.096C37.1947 18.096 36.2187 17.856 35.344 17.376C34.48 16.8853 33.7973 16.208 33.296 15.344C32.8053 14.48 32.56 13.4987 32.56 12.4C32.56 11.3013 32.8053 10.32 33.296 9.456C33.7973 8.58133 34.48 7.904 35.344 7.424C36.2187 6.93333 37.1893 6.688 38.256 6.688C39.5147 6.688 40.608 6.99733 41.536 7.616C42.464 8.224 43.104 9.08267 43.456 10.192H40.88ZM47.6253 6.16V18H45.3853V6.16H47.6253ZM49.2624 13.536C49.2624 12.64 49.4384 11.8453 49.7904 11.152C50.153 10.4587 50.6384 9.92533 51.2464 9.552C51.865 9.17867 52.553 8.992 53.3104 8.992C53.9717 8.992 54.5477 9.12533 55.0384 9.392C55.5397 9.65867 55.9397 9.99467 56.2384 10.4V9.136H58.4944V18H56.2384V16.704C55.9504 17.12 55.5504 17.4667 55.0384 17.744C54.537 18.0107 53.9557 18.144 53.2944 18.144C52.5477 18.144 51.865 17.952 51.2464 17.568C50.6384 17.184 50.153 16.6453 49.7904 15.952C49.4384 15.248 49.2624 14.4427 49.2624 13.536ZM56.2384 13.568C56.2384 13.024 56.1317 12.56 55.9184 12.176C55.705 11.7813 55.417 11.4827 55.0544 11.28C54.6917 11.0667 54.3024 10.96 53.8864 10.96C53.4704 10.96 53.0864 11.0613 52.7344 11.264C52.3824 11.4667 52.0944 11.7653 51.8704 12.16C51.657 12.544 51.5504 13.0027 51.5504 13.536C51.5504 14.0693 51.657 14.5387 51.8704 14.944C52.0944 15.3387 52.3824 15.6427 52.7344 15.856C53.097 16.0693 53.481 16.176 53.8864 16.176C54.3024 16.176 54.6917 16.0747 55.0544 15.872C55.417 15.6587 55.705 15.36 55.9184 14.976C56.1317 14.5813 56.2384 14.112 56.2384 13.568ZM64.0741 18.144C63.3488 18.144 62.6981 18.016 62.1221 17.76C61.5461 17.4933 61.0875 17.136 60.7461 16.688C60.4155 16.24 60.2341 15.744 60.2021 15.2H62.4581C62.5008 15.5413 62.6661 15.824 62.9541 16.048C63.2528 16.272 63.6208 16.384 64.0581 16.384C64.4848 16.384 64.8155 16.2987 65.0501 16.128C65.2955 15.9573 65.4181 15.7387 65.4181 15.472C65.4181 15.184 65.2688 14.9707 64.9701 14.832C64.6821 14.6827 64.2181 14.5227 63.5781 14.352C62.9168 14.192 62.3728 14.0267 61.9461 13.856C61.5301 13.6853 61.1675 13.424 60.8581 13.072C60.5595 12.72 60.4101 12.2453 60.4101 11.648C60.4101 11.1573 60.5488 10.7093 60.8261 10.304C61.1141 9.89867 61.5195 9.57867 62.0421 9.344C62.5755 9.10933 63.1995 8.992 63.9141 8.992C64.9701 8.992 65.8128 9.25867 66.4421 9.792C67.0715 10.3147 67.4181 11.024 67.4821 11.92H65.3381C65.3061 11.568 65.1568 11.2907 64.8901 11.088C64.6341 10.8747 64.2875 10.768 63.8501 10.768C63.4448 10.768 63.1301 10.8427 62.9061 10.992C62.6928 11.1413 62.5861 11.3493 62.5861 11.616C62.5861 11.9147 62.7355 12.144 63.0341 12.304C63.3328 12.4533 63.7968 12.608 64.4261 12.768C65.0661 12.928 65.5941 13.0933 66.0101 13.264C66.4261 13.4347 66.7835 13.7013 67.0821 14.064C67.3915 14.416 67.5515 14.8853 67.5621 15.472C67.5621 15.984 67.4181 16.4427 67.1301 16.848C66.8528 17.2533 66.4475 17.5733 65.9141 17.808C65.3915 18.032 64.7781 18.144 64.0741 18.144ZM68.8249 13.568C68.8249 12.6507 69.0115 11.8507 69.3849 11.168C69.7582 10.4747 70.2755 9.94133 70.9369 9.568C71.5982 9.184 72.3555 8.992 73.2089 8.992C74.3075 8.992 75.2142 9.26933 75.9289 9.824C76.6542 10.368 77.1395 11.136 77.3849 12.128H74.9689C74.8409 11.744 74.6222 11.4453 74.3129 11.232C74.0142 11.008 73.6409 10.896 73.1929 10.896C72.5529 10.896 72.0462 11.1307 71.6729 11.6C71.2995 12.0587 71.1129 12.7147 71.1129 13.568C71.1129 14.4107 71.2995 15.0667 71.6729 15.536C72.0462 15.9947 72.5529 16.224 73.1929 16.224C74.0995 16.224 74.6915 15.8187 74.9689 15.008H77.3849C77.1395 15.968 76.6542 16.7307 75.9289 17.296C75.2035 17.8613 74.2969 18.144 73.2089 18.144C72.3555 18.144 71.5982 17.9573 70.9369 17.584C70.2755 17.2 69.7582 16.6667 69.3849 15.984C69.0115 15.2907 68.8249 14.4853 68.8249 13.568ZM81.2659 10.512C81.5539 10.0427 81.9272 9.67467 82.3859 9.408C82.8552 9.14133 83.3885 9.008 83.9859 9.008V11.36H83.3939C82.6899 11.36 82.1565 11.5253 81.7939 11.856C81.4419 12.1867 81.2659 12.7627 81.2659 13.584V18H79.0259V9.136H81.2659V10.512ZM86.6306 8.08C86.236 8.08 85.9053 7.95733 85.6386 7.712C85.3826 7.456 85.2546 7.14133 85.2546 6.768C85.2546 6.39467 85.3826 6.08533 85.6386 5.84C85.9053 5.584 86.236 5.456 86.6306 5.456C87.0253 5.456 87.3506 5.584 87.6066 5.84C87.8733 6.08533 88.0066 6.39467 88.0066 6.768C88.0066 7.14133 87.8733 7.456 87.6066 7.712C87.3506 7.95733 87.0253 8.08 86.6306 8.08ZM87.7346 9.136V18H85.4946V9.136H87.7346ZM92.1878 10.416C92.4758 10.0107 92.8704 9.67467 93.3718 9.408C93.8838 9.13067 94.4651 8.992 95.1158 8.992C95.8731 8.992 96.5558 9.17867 97.1638 9.552C97.7824 9.92533 98.2678 10.4587 98.6198 11.152C98.9824 11.8347 99.1638 12.6293 99.1638 13.536C99.1638 14.4427 98.9824 15.248 98.6198 15.952C98.2678 16.6453 97.7824 17.184 97.1638 17.568C96.5558 17.952 95.8731 18.144 95.1158 18.144C94.4651 18.144 93.8891 18.0107 93.3878 17.744C92.8971 17.4773 92.4971 17.1413 92.1878 16.736V22.224H89.9478V9.136H92.1878V10.416ZM96.8758 13.536C96.8758 13.0027 96.7638 12.544 96.5398 12.16C96.3264 11.7653 96.0384 11.4667 95.6758 11.264C95.3238 11.0613 94.9398 10.96 94.5238 10.96C94.1184 10.96 93.7344 11.0667 93.3718 11.28C93.0198 11.4827 92.7318 11.7813 92.5078 12.176C92.2944 12.5707 92.1878 13.0347 92.1878 13.568C92.1878 14.1013 92.2944 14.5653 92.5078 14.96C92.7318 15.3547 93.0198 15.6587 93.3718 15.872C93.7344 16.0747 94.1184 16.176 94.5238 16.176C94.9398 16.176 95.3238 16.0693 95.6758 15.856C96.0384 15.6427 96.3264 15.3387 96.5398 14.944C96.7638 14.5493 96.8758 14.08 96.8758 13.536ZM103.4 10.976V15.264C103.4 15.5627 103.469 15.7813 103.608 15.92C103.757 16.048 104.002 16.112 104.344 16.112H105.384V18H103.976C102.088 18 101.144 17.0827 101.144 15.248V10.976H100.088V9.136H101.144V6.944H103.4V9.136H105.384V10.976H103.4Z" fill="white"/>
<defs>
<clipPath id="clip0_18_49">
<rect width="24" height="24" fill="white"/>
</clipPath>
</defs>
</svg>
